<svg width="18" height="19" viewBox="0 0 18 19" fill="none" xmlns="http://www.w3.org/2000/svg">
<g clip-path="url(#clip0_1021_2969)">
<path d="M14.7635 10.4432V15.2432C14.7635 15.4166 14.7002 15.5666 14.5735 15.6932C14.4468 15.8199 14.2968 15.8832 14.1235 15.8832H10.2835V12.0432H7.72349V15.8832H3.88349C3.71016 15.8832 3.56016 15.8199 3.43349 15.6932C3.30683 15.5666 3.24349 15.4166 3.24349 15.2432V10.4432C3.24349 10.4366 3.24516 10.4266 3.24849 10.4132C3.25183 10.3999 3.25349 10.3899 3.25349 10.3832L9.00349 5.64322L14.7535 10.3832C14.7602 10.3966 14.7635 10.4166 14.7635 10.4432ZM16.9935 9.75322L16.3735 10.4932C16.3202 10.5532 16.2502 10.5899 16.1635 10.6032H16.1335C16.0468 10.6032 15.9768 10.5799 15.9235 10.5332L9.00349 4.76322L2.08349 10.5332C2.00349 10.5866 1.92349 10.6099 1.84349 10.6032C1.75683 10.5899 1.68683 10.5532 1.63349 10.4932L1.01349 9.75322C0.960161 9.68656 0.936827 9.60822 0.943494 9.51822C0.950161 9.42822 0.986827 9.35656 1.05349 9.30322L8.24349 3.31322C8.45683 3.13989 8.71016 3.05322 9.00349 3.05322C9.29683 3.05322 9.55016 3.13989 9.76349 3.31322L12.2035 5.35322V3.40322C12.2035 3.30989 12.2335 3.23322 12.2935 3.17322C12.3535 3.11322 12.4302 3.08322 12.5235 3.08322H14.4435C14.5368 3.08322 14.6135 3.11322 14.6735 3.17322C14.7335 3.23322 14.7635 3.30989 14.7635 3.40322V7.48322L16.9535 9.30322C17.0202 9.35656 17.0568 9.42822 17.0635 9.51822C17.0702 9.60822 17.0468 9.68656 16.9935 9.75322Z" fill="#121921"/>
</g>
<defs>
<clipPath id="clip0_1021_2969">
<rect width="17.92" height="17.92" fill="white" transform="translate(0 0.46875)"/>
</clipPath>
</defs>
</svg>
