<svg width="14" height="17" xmlns="http://www.w3.org/2000/svg"><path d="M7.243 0C2.513 0 0 3.13 0 6.536c0 1.585.857 3.557 2.226 4.185.207.095.318.053.366-.144.036-.15.221-.884.304-1.226a.317.317 0 00-.076-.309c-.453-.541-.815-1.537-.815-2.465 0-2.383 1.83-4.688 4.948-4.688 2.694 0 4.58 1.809 4.58 4.395 0 2.922-1.498 4.946-3.447 4.946-1.076 0-1.881-.877-1.622-1.951.308-1.285.908-2.67.908-3.597 0-.83-.453-1.522-1.388-1.522-1.099 0-1.983 1.121-1.983 2.623 0 .957.328 1.604.328 1.604s-1.086 4.526-1.285 5.37c-.193.815-.151 1.919-.073 2.755a.55.55 0 001.016.224c.42-.711.923-1.665 1.13-2.451.133-.505.683-2.568.683-2.568.357.671 1.402 1.24 2.512 1.24 3.306 0 5.688-2.995 5.688-6.719C14 2.67 11.045 0 7.243 0" fill="#000"/></svg>